<svg class="p" viewBox="0 0 652 652" xmlns="http://www.w3.org/2000/svg" preserveAspectRatio="xMidYMid meet" shape-rendering="geometricPrecision"><path d="M107 76H145M63 107V145M89 107V145M176 107V245M307 63H345M307 89H345M407 76H445M507 76H545M576 107V145M407 176H445M507 176H545M463 207V245M489 207V245M207 276H245M176 307V345M307 276H345M407 276H445M363 307V345M389 307V345M176 407V445M376 407V445M476 407V445M263 507V545M289 507V545M407 463H445M407 489H445M376 507V545M507 476H545M476 507V545M107 576H145M207 576H245M307 563H345M307 589H345M507 576H545" fill="none" stroke="#000" stroke-width="7" stroke-linecap="butt"/><circle cx="76" cy="76" r="33" fill="#fff" stroke="#000" stroke-width="8"/><text x="76" y="76" font-size="44" text-anchor="middle" dominant-baseline="central" fill="#000" font-weight="700">3</text><circle cx="176" cy="76" r="33" fill="#fff" stroke="#000" stroke-width="8"/><text x="176" y="76" font-size="44" text-anchor="middle" dominant-baseline="central" fill="#000" font-weight="700">2</text><circle cx="276" cy="76" r="33" fill="#fff" stroke="#000" stroke-width="8"/><text x="276" y="76" font-size="44" text-anchor="middle" dominant-baseline="central" fill="#000" font-weight="700">2</text><circle cx="376" cy="76" r="33" fill="#fff" stroke="#000" stroke-width="8"/><text x="376" y="76" font-size="44" text-anchor="middle" dominant-baseline="central" fill="#000" font-weight="700">3</text><circle cx="476" cy="76" r="33" fill="#fff" stroke="#000" stroke-width="8"/><text x="476" y="76" font-size="44" text-anchor="middle" dominant-baseline="central" fill="#000" font-weight="700">2</text><circle cx="576" cy="76" r="33" fill="#fff" stroke="#000" stroke-width="8"/><text x="576" y="76" font-size="44" text-anchor="middle" dominant-baseline="central" fill="#000" font-weight="700">2</text><circle cx="76" cy="176" r="33" fill="#fff" stroke="#000" stroke-width="8"/><text x="76" y="176" font-size="44" text-anchor="middle" dominant-baseline="central" fill="#000" font-weight="700">2</text><circle cx="376" cy="176" r="33" fill="#fff" stroke="#000" stroke-width="8"/><text x="376" y="176" font-size="44" text-anchor="middle" dominant-baseline="central" fill="#000" font-weight="700">1</text><circle cx="476" cy="176" r="33" fill="#fff" stroke="#000" stroke-width="8"/><text x="476" y="176" font-size="44" text-anchor="middle" dominant-baseline="central" fill="#000" font-weight="700">4</text><circle cx="576" cy="176" r="33" fill="#fff" stroke="#000" stroke-width="8"/><text x="576" y="176" font-size="44" text-anchor="middle" dominant-baseline="central" fill="#000" font-weight="700">2</text><circle cx="176" cy="276" r="33" fill="#fff" stroke="#000" stroke-width="8"/><text x="176" y="276" font-size="44" text-anchor="middle" dominant-baseline="central" fill="#000" font-weight="700">3</text><circle cx="276" cy="276" r="33" fill="#fff" stroke="#000" stroke-width="8"/><text x="276" y="276" font-size="44" text-anchor="middle" dominant-baseline="central" fill="#000" font-weight="700">2</text><circle cx="376" cy="276" r="33" fill="#fff" stroke="#000" stroke-width="8"/><text x="376" y="276" font-size="44" text-anchor="middle" dominant-baseline="central" fill="#000" font-weight="700">4</text><circle cx="476" cy="276" r="33" fill="#fff" stroke="#000" stroke-width="8"/><text x="476" y="276" font-size="44" text-anchor="middle" dominant-baseline="central" fill="#000" font-weight="700">3</text><circle cx="176" cy="376" r="33" fill="#fff" stroke="#000" stroke-width="8"/><text x="176" y="376" font-size="44" text-anchor="middle" dominant-baseline="central" fill="#000" font-weight="700">2</text><circle cx="376" cy="376" r="33" fill="#fff" stroke="#000" stroke-width="8"/><text x="376" y="376" font-size="44" text-anchor="middle" dominant-baseline="central" fill="#000" font-weight="700">3</text><circle cx="476" cy="376" r="33" fill="#fff" stroke="#000" stroke-width="8"/><text x="476" y="376" font-size="44" text-anchor="middle" dominant-baseline="central" fill="#000" font-weight="700">1</text><circle cx="176" cy="476" r="33" fill="#fff" stroke="#000" stroke-width="8"/><text x="176" y="476" font-size="44" text-anchor="middle" dominant-baseline="central" fill="#000" font-weight="700">1</text><circle cx="276" cy="476" r="33" fill="#fff" stroke="#000" stroke-width="8"/><text x="276" y="476" font-size="44" text-anchor="middle" dominant-baseline="central" fill="#000" font-weight="700">2</text><circle cx="376" cy="476" r="33" fill="#fff" stroke="#000" stroke-width="8"/><text x="376" y="476" font-size="44" text-anchor="middle" dominant-baseline="central" fill="#000" font-weight="700">4</text><circle cx="476" cy="476" r="33" fill="#fff" stroke="#000" stroke-width="8"/><text x="476" y="476" font-size="44" text-anchor="middle" dominant-baseline="central" fill="#000" font-weight="700">5</text><circle cx="576" cy="476" r="33" fill="#fff" stroke="#000" stroke-width="8"/><text x="576" y="476" font-size="44" text-anchor="middle" dominant-baseline="central" fill="#000" font-weight="700">1</text><circle cx="76" cy="576" r="33" fill="#fff" stroke="#000" stroke-width="8"/><text x="76" y="576" font-size="44" text-anchor="middle" dominant-baseline="central" fill="#000" font-weight="700">1</text><circle cx="176" cy="576" r="33" fill="#fff" stroke="#000" stroke-width="8"/><text x="176" y="576" font-size="44" text-anchor="middle" dominant-baseline="central" fill="#000" font-weight="700">2</text><circle cx="276" cy="576" r="33" fill="#fff" stroke="#000" stroke-width="8"/><text x="276" y="576" font-size="44" text-anchor="middle" dominant-baseline="central" fill="#000" font-weight="700">5</text><circle cx="376" cy="576" r="33" fill="#fff" stroke="#000" stroke-width="8"/><text x="376" y="576" font-size="44" text-anchor="middle" dominant-baseline="central" fill="#000" font-weight="700">3</text><circle cx="476" cy="576" r="33" fill="#fff" stroke="#000" stroke-width="8"/><text x="476" y="576" font-size="44" text-anchor="middle" dominant-baseline="central" fill="#000" font-weight="700">2</text><circle cx="576" cy="576" r="33" fill="#fff" stroke="#000" stroke-width="8"/><text x="576" y="576" font-size="44" text-anchor="middle" dominant-baseline="central" fill="#000" font-weight="700">1</text></svg>
