<svg class="p" viewBox="0 0 932 932" xmlns="http://www.w3.org/2000/svg" preserveAspectRatio="xMidYMid meet" shape-rendering="geometricPrecision"><path d="M16 116H916M16 216H916M16 316H916M16 516H916M16 616H916M16 716H916M16 816H916M116 16V916M216 16V916M316 16V916M416 16V916M716 16V916M816 16V916" fill="none" stroke="#000" stroke-width="4" stroke-linecap="square"/><path d="M216 116H516M116 216H216M416 216H516M616 216H716M416 316H516M816 316H916M16 416H416M616 416H716M116 516H216M516 516H816M216 616H416M616 616H716M516 716H616M716 716H916M116 816H316M416 816H516M116 216V416M116 516V816M216 116V216M216 416V516M216 616V816M316 816V916M416 116V216M416 316V616M416 816V916M516 16V116M516 216V816M616 16V216M616 416V516M616 616V716M716 216V416M716 616V716M816 316V516" fill="none" stroke="#000" stroke-width="12" stroke-linecap="square"/><rect x="16" y="16" width="900" height="900" fill="none" stroke="#000" stroke-width="12"/></svg>
