<svg class="p" viewBox="0 0 752 752" xmlns="http://www.w3.org/2000/svg" preserveAspectRatio="xMidYMid meet" shape-rendering="geometricPrecision"><path d="M207 76H245M307 76H345M263 107V145M289 107V145M407 76H445M476 107V145M107 176H145M76 207V245M207 163H245M207 189H245M263 207V345M289 207V345M407 176H445M376 207V245M676 207V245M663 307V345M689 307V345M207 376H245M307 376H345M363 407V445M389 407V445M607 376H645M563 407V445M589 407V445M107 476H345M76 507V545M363 507V545M389 507V545M507 476H545M607 476H645M576 507V545M107 563H145M107 589H145M76 607V645M207 576H245M407 576H545M576 607V645M207 676H445M507 676H545M607 676H645" fill="none" stroke="#000" stroke-width="7" stroke-linecap="butt"/><circle cx="176" cy="76" r="33" fill="#fff" stroke="#000" stroke-width="8"/><text x="176" y="76" font-size="44" text-anchor="middle" dominant-baseline="central" fill="#000" font-weight="700">1</text><circle cx="276" cy="76" r="33" fill="#fff" stroke="#000" stroke-width="8"/><text x="276" y="76" font-size="44" text-anchor="middle" dominant-baseline="central" fill="#000" font-weight="700">4</text><circle cx="376" cy="76" r="33" fill="#fff" stroke="#000" stroke-width="8"/><text x="376" y="76" font-size="44" text-anchor="middle" dominant-baseline="central" fill="#000" font-weight="700">2</text><circle cx="476" cy="76" r="33" fill="#fff" stroke="#000" stroke-width="8"/><text x="476" y="76" font-size="44" text-anchor="middle" dominant-baseline="central" fill="#000" font-weight="700">2</text><circle cx="76" cy="176" r="33" fill="#fff" stroke="#000" stroke-width="8"/><text x="76" y="176" font-size="44" text-anchor="middle" dominant-baseline="central" fill="#000" font-weight="700">2</text><circle cx="176" cy="176" r="33" fill="#fff" stroke="#000" stroke-width="8"/><text x="176" y="176" font-size="44" text-anchor="middle" dominant-baseline="central" fill="#000" font-weight="700">3</text><circle cx="276" cy="176" r="33" fill="#fff" stroke="#000" stroke-width="8"/><text x="276" y="176" font-size="44" text-anchor="middle" dominant-baseline="central" fill="#000" font-weight="700">6</text><circle cx="376" cy="176" r="33" fill="#fff" stroke="#000" stroke-width="8"/><text x="376" y="176" font-size="44" text-anchor="middle" dominant-baseline="central" fill="#000" font-weight="700">2</text><circle cx="476" cy="176" r="33" fill="#fff" stroke="#000" stroke-width="8"/><text x="476" y="176" font-size="44" text-anchor="middle" dominant-baseline="central" fill="#000" font-weight="700">2</text><circle cx="676" cy="176" r="33" fill="#fff" stroke="#000" stroke-width="8"/><text x="676" y="176" font-size="44" text-anchor="middle" dominant-baseline="central" fill="#000" font-weight="700">1</text><circle cx="76" cy="276" r="33" fill="#fff" stroke="#000" stroke-width="8"/><text x="76" y="276" font-size="44" text-anchor="middle" dominant-baseline="central" fill="#000" font-weight="700">1</text><circle cx="376" cy="276" r="33" fill="#fff" stroke="#000" stroke-width="8"/><text x="376" y="276" font-size="44" text-anchor="middle" dominant-baseline="central" fill="#000" font-weight="700">1</text><circle cx="676" cy="276" r="33" fill="#fff" stroke="#000" stroke-width="8"/><text x="676" y="276" font-size="44" text-anchor="middle" dominant-baseline="central" fill="#000" font-weight="700">3</text><circle cx="176" cy="376" r="33" fill="#fff" stroke="#000" stroke-width="8"/><text x="176" y="376" font-size="44" text-anchor="middle" dominant-baseline="central" fill="#000" font-weight="700">1</text><circle cx="276" cy="376" r="33" fill="#fff" stroke="#000" stroke-width="8"/><text x="276" y="376" font-size="44" text-anchor="middle" dominant-baseline="central" fill="#000" font-weight="700">4</text><circle cx="376" cy="376" r="33" fill="#fff" stroke="#000" stroke-width="8"/><text x="376" y="376" font-size="44" text-anchor="middle" dominant-baseline="central" fill="#000" font-weight="700">3</text><circle cx="576" cy="376" r="33" fill="#fff" stroke="#000" stroke-width="8"/><text x="576" y="376" font-size="44" text-anchor="middle" dominant-baseline="central" fill="#000" font-weight="700">3</text><circle cx="676" cy="376" r="33" fill="#fff" stroke="#000" stroke-width="8"/><text x="676" y="376" font-size="44" text-anchor="middle" dominant-baseline="central" fill="#000" font-weight="700">3</text><circle cx="76" cy="476" r="33" fill="#fff" stroke="#000" stroke-width="8"/><text x="76" y="476" font-size="44" text-anchor="middle" dominant-baseline="central" fill="#000" font-weight="700">2</text><circle cx="376" cy="476" r="33" fill="#fff" stroke="#000" stroke-width="8"/><text x="376" y="476" font-size="44" text-anchor="middle" dominant-baseline="central" fill="#000" font-weight="700">5</text><circle cx="476" cy="476" r="33" fill="#fff" stroke="#000" stroke-width="8"/><text x="476" y="476" font-size="44" text-anchor="middle" dominant-baseline="central" fill="#000" font-weight="700">1</text><circle cx="576" cy="476" r="33" fill="#fff" stroke="#000" stroke-width="8"/><text x="576" y="476" font-size="44" text-anchor="middle" dominant-baseline="central" fill="#000" font-weight="700">5</text><circle cx="676" cy="476" r="33" fill="#fff" stroke="#000" stroke-width="8"/><text x="676" y="476" font-size="44" text-anchor="middle" dominant-baseline="central" fill="#000" font-weight="700">1</text><circle cx="76" cy="576" r="33" fill="#fff" stroke="#000" stroke-width="8"/><text x="76" y="576" font-size="44" text-anchor="middle" dominant-baseline="central" fill="#000" font-weight="700">4</text><circle cx="176" cy="576" r="33" fill="#fff" stroke="#000" stroke-width="8"/><text x="176" y="576" font-size="44" text-anchor="middle" dominant-baseline="central" fill="#000" font-weight="700">3</text><circle cx="276" cy="576" r="33" fill="#fff" stroke="#000" stroke-width="8"/><text x="276" y="576" font-size="44" text-anchor="middle" dominant-baseline="central" fill="#000" font-weight="700">1</text><circle cx="376" cy="576" r="33" fill="#fff" stroke="#000" stroke-width="8"/><text x="376" y="576" font-size="44" text-anchor="middle" dominant-baseline="central" fill="#000" font-weight="700">3</text><circle cx="576" cy="576" r="33" fill="#fff" stroke="#000" stroke-width="8"/><text x="576" y="576" font-size="44" text-anchor="middle" dominant-baseline="central" fill="#000" font-weight="700">3</text><circle cx="76" cy="676" r="33" fill="#fff" stroke="#000" stroke-width="8"/><text x="76" y="676" font-size="44" text-anchor="middle" dominant-baseline="central" fill="#000" font-weight="700">1</text><circle cx="176" cy="676" r="33" fill="#fff" stroke="#000" stroke-width="8"/><text x="176" y="676" font-size="44" text-anchor="middle" dominant-baseline="central" fill="#000" font-weight="700">1</text><circle cx="476" cy="676" r="33" fill="#fff" stroke="#000" stroke-width="8"/><text x="476" y="676" font-size="44" text-anchor="middle" dominant-baseline="central" fill="#000" font-weight="700">2</text><circle cx="576" cy="676" r="33" fill="#fff" stroke="#000" stroke-width="8"/><text x="576" y="676" font-size="44" text-anchor="middle" dominant-baseline="central" fill="#000" font-weight="700">3</text><circle cx="676" cy="676" r="33" fill="#fff" stroke="#000" stroke-width="8"/><text x="676" y="676" font-size="44" text-anchor="middle" dominant-baseline="central" fill="#000" font-weight="700">1</text></svg>
