<svg xmlns="http://www.w3.org/2000/svg" width="600" height="600" viewBox="0 0 600 600" role="img" aria-label="Ručné záhradnícke nožnice"><rect width="600" height="600" fill="#f6f2ea"/><rect x="24" y="24" width="552" height="552" fill="none" stroke="#d9d2c4" stroke-width="2"/><g transform="translate(150 132) scale(1.5)"><g fill="none" stroke="#1b1a17" stroke-width="13" stroke-linecap="round" stroke-linejoin="round"><path d="M56 86 h68 v58 a24 24 0 0 1 -24 24 h-20 a24 24 0 0 1 -24 -24 z"/>
          <path d="M124 100 l40 -26 v-16"/><path d="M76 86 v-14 a16 16 0 0 1 32 0 v14"/>
          <path d="M164 58 l-14 -12 M164 58 l14 -12" stroke="#b23a1d"/></g></g><text x="300" y="428" text-anchor="middle" font-family="system-ui,Segoe UI,Helvetica,Arial,sans-serif" font-size="19" letter-spacing="3" fill="#b23a1d">ZÁHRADA</text><line x1="256" y1="444" x2="344" y2="444" stroke="#b23a1d" stroke-width="2"/><text x="300" y="470" text-anchor="middle" font-family="Iowan Old Style,Palatino,Georgia,serif" font-size="27" fill="#1b1a17">Ručné záhradnícke nožnice</text></svg>