<svg class="p" viewBox="0 0 760 760" xmlns="http://www.w3.org/2000/svg" preserveAspectRatio="xMidYMid meet" shape-rendering="geometricPrecision"><g fill="#000"><circle cx="30" cy="30" r="5"/><circle cx="130" cy="30" r="5"/><circle cx="230" cy="30" r="5"/><circle cx="330" cy="30" r="5"/><circle cx="430" cy="30" r="5"/><circle cx="530" cy="30" r="5"/><circle cx="630" cy="30" r="5"/><circle cx="730" cy="30" r="5"/><circle cx="30" cy="130" r="5"/><circle cx="130" cy="130" r="5"/><circle cx="230" cy="130" r="5"/><circle cx="330" cy="130" r="5"/><circle cx="430" cy="130" r="5"/><circle cx="530" cy="130" r="5"/><circle cx="630" cy="130" r="5"/><circle cx="730" cy="130" r="5"/><circle cx="30" cy="230" r="5"/><circle cx="130" cy="230" r="5"/><circle cx="230" cy="230" r="5"/><circle cx="330" cy="230" r="5"/><circle cx="430" cy="230" r="5"/><circle cx="530" cy="230" r="5"/><circle cx="630" cy="230" r="5"/><circle cx="730" cy="230" r="5"/><circle cx="30" cy="330" r="5"/><circle cx="130" cy="330" r="5"/><circle cx="230" cy="330" r="5"/><circle cx="330" cy="330" r="5"/><circle cx="430" cy="330" r="5"/><circle cx="530" cy="330" r="5"/><circle cx="630" cy="330" r="5"/><circle cx="730" cy="330" r="5"/><circle cx="30" cy="430" r="5"/><circle cx="130" cy="430" r="5"/><circle cx="230" cy="430" r="5"/><circle cx="330" cy="430" r="5"/><circle cx="430" cy="430" r="5"/><circle cx="530" cy="430" r="5"/><circle cx="630" cy="430" r="5"/><circle cx="730" cy="430" r="5"/><circle cx="30" cy="530" r="5"/><circle cx="130" cy="530" r="5"/><circle cx="230" cy="530" r="5"/><circle cx="330" cy="530" r="5"/><circle cx="430" cy="530" r="5"/><circle cx="530" cy="530" r="5"/><circle cx="630" cy="530" r="5"/><circle cx="730" cy="530" r="5"/><circle cx="30" cy="630" r="5"/><circle cx="130" cy="630" r="5"/><circle cx="230" cy="630" r="5"/><circle cx="330" cy="630" r="5"/><circle cx="430" cy="630" r="5"/><circle cx="530" cy="630" r="5"/><circle cx="630" cy="630" r="5"/><circle cx="730" cy="630" r="5"/><circle cx="30" cy="730" r="5"/><circle cx="130" cy="730" r="5"/><circle cx="230" cy="730" r="5"/><circle cx="330" cy="730" r="5"/><circle cx="430" cy="730" r="5"/><circle cx="530" cy="730" r="5"/><circle cx="630" cy="730" r="5"/><circle cx="730" cy="730" r="5"/></g><g fill="#8e8e8e" font-size="54" text-anchor="middle" dominant-baseline="central"><text x="380" y="80">2</text><text x="480" y="80">2</text><text x="580" y="80">1</text><text x="180" y="180">0</text><text x="680" y="180">3</text><text x="180" y="280">0</text><text x="380" y="280">2</text><text x="480" y="280">1</text><text x="680" y="280">1</text><text x="280" y="380">1</text><text x="480" y="380">1</text><text x="580" y="380">3</text><text x="680" y="380">3</text><text x="280" y="480">0</text><text x="680" y="480">1</text><text x="680" y="580">2</text><text x="380" y="680">0</text></g><path d="M230 30H330M330 30H430M430 30H530M230 130H330M330 130H430M630 130H730M530 230H630M330 330H430M530 330H630M330 430H430M630 430H730M530 530H630M430 630H530M630 630H730M530 730H630M630 730H730M230 30V130M530 30V130M430 130V230M530 130V230M630 130V230M730 130V230M430 230V330M730 230V330M330 330V430M530 330V430M630 330V430M730 330V430M430 430V530M530 430V530M430 530V630M630 530V630M530 630V730M730 630V730" fill="none" stroke="#000" stroke-width="13" stroke-linecap="round"/></svg>
