<svg class="p" viewBox="0 0 1032 1032" xmlns="http://www.w3.org/2000/svg" preserveAspectRatio="xMidYMid meet" shape-rendering="geometricPrecision"><path d="M16 116H1016M16 216H1016M16 316H1016M16 416H1016M16 516H1016M16 616H1016M16 716H1016M16 816H1016M16 916H1016M116 16V1016M316 16V1016M416 16V1016M516 16V1016M616 16V1016M716 16V1016M816 16V1016M916 16V1016" fill="none" stroke="#000" stroke-width="4" stroke-linecap="square"/><path d="M116 116H216M416 116H1016M116 216H216M316 216H416M716 216H916M116 316H216M316 316H916M316 416H816M916 416H1016M216 516H316M516 516H616M816 516H916M116 616H216M316 616H416M616 616H716M516 716H616M716 716H816M916 716H1016M116 816H216M316 816H516M816 816H916M116 916H216M516 916H816M116 116V216M116 316V816M116 916V1016M216 16V116M216 216V316M216 516V616M216 816V916M316 216V416M316 516V816M416 116V216M416 416V616M416 816V1016M516 516V716M516 816V916M616 516V616M616 716V916M716 116V216M716 416V616M716 716V916M816 416V716M816 816V916M916 216V516M916 716V816" fill="none" stroke="#000" stroke-width="12" stroke-linecap="square"/><rect x="16" y="16" width="1000" height="1000" fill="none" stroke="#000" stroke-width="12"/></svg>
