<svg class="p" viewBox="0 0 1032 1032" xmlns="http://www.w3.org/2000/svg" preserveAspectRatio="xMidYMid meet" shape-rendering="geometricPrecision"><path d="M16 116H1016M16 216H1016M16 316H1016M16 516H1016M16 716H1016M16 816H1016M116 16V1016M316 16V1016M416 16V1016M516 16V1016M616 16V1016M716 16V1016M816 16V1016" fill="none" stroke="#000" stroke-width="4" stroke-linecap="square"/><path d="M216 116H716M816 116H916M116 216H316M416 216H516M916 216H1016M116 316H216M616 316H716M816 316H916M16 416H216M616 416H716M816 416H916M216 516H316M516 516H716M816 516H916M16 616H116M316 616H416M516 616H716M116 716H316M516 716H716M916 716H1016M116 816H216M316 816H416M616 816H916M16 916H116M216 916H616M116 216V316M116 616V716M116 816V916M216 16V116M216 316V516M216 816V916M316 116V216M316 516V616M316 716V916M416 216V816M516 216V616M516 716V916M616 316V416M616 716V816M616 916V1016M716 116V316M716 416V516M716 616V716M816 116V416M816 516V816M916 16V116M916 216V316M916 416V516M916 716V816" fill="none" stroke="#000" stroke-width="12" stroke-linecap="square"/><rect x="16" y="16" width="1000" height="1000" fill="none" stroke="#000" stroke-width="12"/><g fill="#000"><polygon points="666,32 674.394,54.447 698.336,55.493 679.581,70.413 685.985,93.507 666,80.28 646.015,93.507 652.419,70.413 633.664,55.493 657.606,54.447"/><polygon points="966,32 974.394,54.447 998.336,55.493 979.581,70.413 985.985,93.507 966,80.28 946.015,93.507 952.419,70.413 933.664,55.493 957.606,54.447"/><polygon points="166,132 174.394,154.447 198.336,155.493 179.581,170.413 185.985,193.507 166,180.28 146.015,193.507 152.419,170.413 133.664,155.493 157.606,154.447"/><polygon points="366,132 374.394,154.447 398.336,155.493 379.581,170.413 385.985,193.507 366,180.28 346.015,193.507 352.419,170.413 333.664,155.493 357.606,154.447"/><polygon points="666,232 674.394,254.447 698.336,255.493 679.581,270.413 685.985,293.507 666,280.28 646.015,293.507 652.419,270.413 633.664,255.493 657.606,254.447"/><polygon points="866,232 874.394,254.447 898.336,255.493 879.581,270.413 885.985,293.507 866,280.28 846.015,293.507 852.419,270.413 833.664,255.493 857.606,254.447"/><polygon points="166,332 174.394,354.447 198.336,355.493 179.581,370.413 185.985,393.507 166,380.28 146.015,393.507 152.419,370.413 133.664,355.493 157.606,354.447"/><polygon points="466,332 474.394,354.447 498.336,355.493 479.581,370.413 485.985,393.507 466,380.28 446.015,393.507 452.419,370.413 433.664,355.493 457.606,354.447"/><polygon points="766,432 774.394,454.447 798.336,455.493 779.581,470.413 785.985,493.507 766,480.28 746.015,493.507 752.419,470.413 733.664,455.493 757.606,454.447"/><polygon points="966,432 974.394,454.447 998.336,455.493 979.581,470.413 985.985,493.507 966,480.28 946.015,493.507 952.419,470.413 933.664,455.493 957.606,454.447"/><polygon points="266,532 274.394,554.447 298.336,555.493 279.581,570.413 285.985,593.507 266,580.28 246.015,593.507 252.419,570.413 233.664,555.493 257.606,554.447"/><polygon points="466,532 474.394,554.447 498.336,555.493 479.581,570.413 485.985,593.507 466,580.28 446.015,593.507 452.419,570.413 433.664,555.493 457.606,554.447"/><polygon points="66,632 74.394,654.447 98.336,655.493 79.581,670.413 85.985,693.507 66,680.28 46.015,693.507 52.419,670.413 33.664,655.493 57.606,654.447"/><polygon points="866,632 874.394,654.447 898.336,655.493 879.581,670.413 885.985,693.507 866,680.28 846.015,693.507 852.419,670.413 833.664,655.493 857.606,654.447"/><polygon points="366,732 374.394,754.447 398.336,755.493 379.581,770.413 385.985,793.507 366,780.28 346.015,793.507 352.419,770.413 333.664,755.493 357.606,754.447"/><polygon points="566,732 574.394,754.447 598.336,755.493 579.581,770.413 585.985,793.507 566,780.28 546.015,793.507 552.419,770.413 533.664,755.493 557.606,754.447"/><polygon points="66,832 74.394,854.447 98.336,855.493 79.581,870.413 85.985,893.507 66,880.28 46.015,893.507 52.419,870.413 33.664,855.493 57.606,854.447"/><polygon points="766,832 774.394,854.447 798.336,855.493 779.581,870.413 785.985,893.507 766,880.28 746.015,893.507 752.419,870.413 733.664,855.493 757.606,854.447"/><polygon points="266,932 274.394,954.447 298.336,955.493 279.581,970.413 285.985,993.507 266,980.28 246.015,993.507 252.419,970.413 233.664,955.493 257.606,954.447"/><polygon points="566,932 574.394,954.447 598.336,955.493 579.581,970.413 585.985,993.507 566,980.28 546.015,993.507 552.419,970.413 533.664,955.493 557.606,954.447"/></g></svg>
