<svg class="p" viewBox="0 0 1032 1032" xmlns="http://www.w3.org/2000/svg" preserveAspectRatio="xMidYMid meet" shape-rendering="geometricPrecision"><path d="M16 116H1016M16 216H1016M16 316H1016M16 516H1016M16 716H1016M16 816H1016M116 16V1016M216 16V1016M316 16V1016M516 16V1016M616 16V1016M716 16V1016M816 16V1016" fill="none" stroke="#000" stroke-width="4" stroke-linecap="square"/><path d="M216 116H316M416 116H616M716 116H916M116 216H216M516 216H616M416 316H516M916 316H1016M16 416H116M216 416H416M616 416H716M816 416H916M116 516H316M716 516H816M16 616H116M316 616H816M116 716H216M416 716H516M716 716H816M316 816H416M516 816H616M716 816H816M16 916H316M816 916H1016M116 216V516M116 616V716M216 116V216M216 416V516M216 716V916M316 116V416M316 516V616M316 816V916M416 16V116M416 316V416M416 716V816M516 216V316M516 616V816M616 116V616M616 816V1016M716 116V416M716 516V616M716 716V816M816 416V516M816 616V716M816 816V916M916 16V116M916 316V416" fill="none" stroke="#000" stroke-width="12" stroke-linecap="square"/><rect x="16" y="16" width="1000" height="1000" fill="none" stroke="#000" stroke-width="12"/></svg>
