<svg class="p" viewBox="0 0 932 932" xmlns="http://www.w3.org/2000/svg" preserveAspectRatio="xMidYMid meet" shape-rendering="geometricPrecision"><path d="M16 116H916M16 216H916M16 416H916M16 516H916M16 616H916M16 716H916M16 816H916M116 16V916M216 16V916M516 16V916M616 16V916M716 16V916" fill="none" stroke="#000" stroke-width="4" stroke-linecap="square"/><path d="M216 116H316M616 116H716M216 216H316M416 216H516M716 216H816M16 316H316M216 416H416M616 416H916M116 516H316M416 516H716M116 616H516M616 616H816M116 716H216M416 716H516M816 716H916M116 816H216M416 816H616M116 516V616M116 716V816M216 116V216M216 316V416M216 616V716M216 816V916M316 16V116M316 216V316M316 416V516M416 16V216M416 416V516M416 716V816M516 216V516M516 616V716M616 116V516M616 616V916M716 116V216M716 516V616M816 16V216M816 616V716" fill="none" stroke="#000" stroke-width="12" stroke-linecap="square"/><rect x="16" y="16" width="900" height="900" fill="none" stroke="#000" stroke-width="12"/></svg>
